<svg width="20" height="20" viewBox="0 0 20 20" fill="none" xmlns="http://www.w3.org/2000/svg">
<path d="M19.1759 4.17934C19.1264 4.08306 19.0549 3.99983 18.9671 3.93643C18.8794 3.87303 18.7779 3.83126 18.6709 3.8145C18.5639 3.79775 18.4545 3.8065 18.3516 3.84003C18.2487 3.87356 18.1551 3.93093 18.0785 4.00747L15.4385 6.64918C15.3089 6.7769 15.1343 6.84849 14.9523 6.84849C14.7704 6.84849 14.5957 6.7769 14.4661 6.64918L13.3249 5.50621C13.261 5.44237 13.2104 5.36658 13.1758 5.28315C13.1412 5.19973 13.1235 5.11032 13.1235 5.02002C13.1235 4.92973 13.1412 4.84031 13.1758 4.75689C13.2104 4.67347 13.261 4.59767 13.3249 4.53383L15.9537 1.90458C16.0325 1.82578 16.091 1.72901 16.1241 1.62259C16.1572 1.51618 16.1639 1.40332 16.1437 1.29372C16.1235 1.18413 16.0769 1.08109 16.0081 0.993485C15.9392 0.905878 15.85 0.836328 15.7483 0.790826V0.790826C13.7627 -0.0969086 11.2843 0.366294 9.72152 1.91747C8.39379 3.23575 7.99805 5.29567 8.63656 7.56914C8.67099 7.69038 8.67119 7.81878 8.63714 7.94013C8.60308 8.06147 8.53611 8.17102 8.44363 8.25664L1.2902 14.79C1.01152 15.0403 0.786739 15.3446 0.629563 15.6846C0.472387 16.0245 0.386114 16.3929 0.376005 16.7673C0.365896 17.1417 0.432163 17.5142 0.570765 17.8621C0.709367 18.2101 0.917397 18.5261 1.18217 18.791C1.44693 19.0559 1.76289 19.264 2.11076 19.4028C2.45863 19.5416 2.83112 19.608 3.20551 19.598C3.5799 19.5881 3.94834 19.502 4.28836 19.345C4.62837 19.1879 4.93283 18.9633 5.18317 18.6847L11.7866 11.5154C11.871 11.4241 11.9787 11.3576 12.0981 11.323C12.2175 11.2884 12.3441 11.287 12.4642 11.319C13.1115 11.4964 13.7791 11.5884 14.4502 11.5927C15.8854 11.5927 17.1448 11.1282 18.0532 10.2332C19.7354 8.5759 19.9919 5.76489 19.1759 4.17934ZM3.27492 18.2142C2.99193 18.2451 2.70633 18.1874 2.45753 18.0491C2.20873 17.9107 2.009 17.6986 1.88591 17.4419C1.76282 17.1852 1.72243 16.8966 1.77032 16.616C1.81821 16.3354 1.95202 16.0766 2.15328 15.8752C2.35454 15.6739 2.61333 15.54 2.89393 15.492C3.17453 15.444 3.4631 15.4843 3.71983 15.6073C3.97656 15.7303 4.18878 15.93 4.32721 16.1787C4.46564 16.4275 4.52345 16.7131 4.49266 16.9961C4.45878 17.3074 4.31961 17.5979 4.09817 17.8194C3.87673 18.041 3.58629 18.1802 3.27492 18.2142V18.2142Z" fill="#343537"/>
</svg>
