<svg width="20" height="18" viewBox="0 0 20 18" fill="none" xmlns="http://www.w3.org/2000/svg">
<path d="M2.78432 17.8638H1.31214C1.01931 17.8638 0.738467 17.773 0.531402 17.6115C0.324336 17.45 0.208008 17.2309 0.208008 17.0024V11.8345C0.208008 11.606 0.324336 11.387 0.531402 11.2254C0.738467 11.0639 1.01931 10.9731 1.31214 10.9731H2.78432C3.07716 10.9731 3.358 11.0639 3.56507 11.2254C3.77213 11.387 3.88846 11.606 3.88846 11.8345V17.0024C3.88846 17.2309 3.77213 17.45 3.56507 17.6115C3.358 17.773 3.07716 17.8638 2.78432 17.8638V17.8638Z" fill="#343537"/>
<path d="M13.09 17.8628H11.6178C11.325 17.8628 11.0441 17.772 10.8371 17.6105C10.63 17.449 10.5137 17.2299 10.5137 17.0015V8.38818C10.5137 8.15975 10.63 7.94066 10.8371 7.77913C11.0441 7.6176 11.325 7.52686 11.6178 7.52686H13.09C13.3828 7.52686 13.6637 7.6176 13.8707 7.77913C14.0778 7.94066 14.1941 8.15975 14.1941 8.38818V17.0015C14.1941 17.2299 14.0778 17.449 13.8707 17.6105C13.6637 17.772 13.3828 17.8628 13.09 17.8628V17.8628Z" fill="#343537"/>
<path d="M18.2423 17.8632H16.7702C16.4773 17.8632 16.1965 17.7724 15.9894 17.6109C15.7823 17.4493 15.666 17.2303 15.666 17.0018V4.36902C15.666 4.14058 15.7823 3.9215 15.9894 3.75997C16.1965 3.59844 16.4773 3.50769 16.7702 3.50769H18.2423C18.5352 3.50769 18.816 3.59844 19.0231 3.75997C19.2301 3.9215 19.3465 4.14058 19.3465 4.36902V17.0018C19.3465 17.2303 19.2301 17.4493 19.0231 17.6109C18.816 17.7724 18.5352 17.8632 18.2423 17.8632V17.8632Z" fill="#343537"/>
<path d="M7.93667 17.863H6.46449C6.17165 17.863 5.89081 17.7723 5.68375 17.6108C5.47668 17.4492 5.36035 17.2301 5.36035 17.0017V1.4978C5.36035 1.26936 5.47668 1.05028 5.68375 0.888752C5.89081 0.727221 6.17165 0.636475 6.46449 0.636475H7.93667C8.2295 0.636475 8.51035 0.727221 8.71741 0.888752C8.92448 1.05028 9.04081 1.26936 9.04081 1.4978V17.0017C9.04081 17.2301 8.92448 17.4492 8.71741 17.6108C8.51035 17.7723 8.2295 17.863 7.93667 17.863V17.863Z" fill="#343537"/>
</svg>
