<svg width="23" height="17" viewBox="0 0 23 17" fill="none" xmlns="http://www.w3.org/2000/svg">
<path d="M11.9353 2.54766C11.8668 2.49654 11.7757 2.46802 11.6809 2.46802C11.5861 2.46802 11.4949 2.49654 11.4265 2.54766L2.95681 8.85939C2.92084 8.88624 2.89223 8.91849 2.87269 8.95421C2.85316 8.98992 2.84312 9.02836 2.84318 9.06719L2.8418 14.991C2.8418 15.2956 2.9969 15.5877 3.27299 15.803C3.54908 16.0184 3.92353 16.1394 4.31398 16.1394H8.73512C8.93035 16.1394 9.11757 16.0789 9.25562 15.9712C9.39366 15.8635 9.47121 15.7175 9.47121 15.5652V10.6843C9.47121 10.6082 9.50999 10.5352 9.57901 10.4813C9.64803 10.4275 9.74165 10.3972 9.83926 10.3972H13.5197C13.6173 10.3972 13.7109 10.4275 13.78 10.4813C13.849 10.5352 13.8878 10.6082 13.8878 10.6843V15.5652C13.8878 15.7175 13.9653 15.8635 14.1034 15.9712C14.2414 16.0789 14.4286 16.1394 14.6238 16.1394H19.0432C19.4336 16.1394 19.8081 16.0184 20.0841 15.803C20.3602 15.5877 20.5153 15.2956 20.5153 14.991V9.06719C20.5154 9.02836 20.5054 8.98992 20.4858 8.95421C20.4663 8.91849 20.4377 8.88624 20.4017 8.85939L11.9353 2.54766Z" fill="#343537"/>
<path d="M22.4882 7.67579L19.047 5.1076V1.21045C19.047 1.05816 18.9694 0.912102 18.8314 0.804415C18.6933 0.696728 18.5061 0.63623 18.3109 0.63623H16.1026C15.9074 0.63623 15.7202 0.696728 15.5821 0.804415C15.4441 0.912102 15.3665 1.05816 15.3665 1.21045V2.35889L12.7019 0.371372C12.4525 0.174702 12.0817 0.0620117 11.681 0.0620117C11.2817 0.0620117 10.9118 0.174702 10.6625 0.371731L0.877055 7.67508C0.5909 7.89041 0.555015 8.24463 0.815407 8.4779C0.880796 8.53679 0.960859 8.58467 1.05073 8.61865C1.14059 8.65263 1.23838 8.67199 1.33814 8.67555C1.4379 8.6791 1.53755 8.66679 1.63102 8.63935C1.72448 8.61191 1.80981 8.56993 1.88182 8.51595L11.428 1.39994C11.4965 1.34883 11.5876 1.3203 11.6824 1.3203C11.7772 1.3203 11.8683 1.34883 11.9368 1.39994L21.4839 8.51595C21.6245 8.62115 21.8129 8.67857 22.0077 8.67561C22.2025 8.67265 22.3879 8.60955 22.5232 8.50016C22.8057 8.2719 22.7822 7.89507 22.4882 7.67579Z" fill="#343537"/>
</svg>
