<svg width="834" height="911" viewBox="0 0 834 911" fill="none" xmlns="http://www.w3.org/2000/svg">
<path d="M642.521 284.357C713.2 363.954 770.712 440.862 759.625 516.156C748.539 591.451 668.852 665.132 549.67 730.746C430.487 796.897 271.807 854.444 170.64 817.334C69.4735 780.763 25.8194 648.997 10.575 531.215C-4.66928 413.433 9.1892 309.635 79.1745 230.038C149.853 150.441 277.351 95.5832 382.675 109.029C488.692 122.474 571.843 204.76 642.521 284.357Z" fill="#AAB0FF"/>
<path d="M319.076 198.639C313.759 218.397 302.7 236.133 287.299 249.602C271.897 263.072 252.846 271.67 232.557 274.307C212.267 276.945 191.651 273.505 173.318 264.421C154.984 255.337 139.758 241.018 129.565 223.277C119.373 205.536 114.673 185.17 116.06 164.757C117.447 144.343 124.859 124.8 137.358 108.601C149.856 92.4021 166.88 80.2749 186.273 73.7546C205.667 67.2344 226.559 66.6142 246.306 71.9724C259.401 75.5112 271.671 81.5947 282.415 89.8755C293.159 98.1563 302.167 108.472 308.925 120.234C315.682 131.997 320.057 144.975 321.799 158.427C323.54 171.88 322.615 185.544 319.076 198.639Z" fill="#FEE475"/>
<path d="M297.799 193.961C293.748 209.02 285.32 222.538 273.583 232.804C261.846 243.07 247.327 249.624 231.863 251.635C216.4 253.646 200.688 251.024 186.715 244.101C172.742 237.178 161.138 226.265 153.37 212.744C145.603 199.223 142.021 183.701 143.079 168.143C144.137 152.585 149.787 137.691 159.314 125.346C168.84 113.001 181.815 103.76 196.596 98.792C211.378 93.8243 227.3 93.3536 242.349 97.4395C262.499 102.891 279.659 116.12 290.057 134.22C300.455 152.32 303.24 173.809 297.799 193.961Z" fill="#FEE475"/>
<path d="M295.325 192.191C295.359 191.765 295.425 191.343 295.524 190.927C295.687 190.024 295.939 188.796 296.228 187.315C296.391 186.502 296.59 185.617 296.788 184.623C296.987 183.63 297.005 182.51 297.15 181.318C297.521 178.583 297.69 175.824 297.655 173.064C297.791 165.495 296.774 157.949 294.639 150.685C289.689 133.218 278.816 118.017 263.884 107.689C248.952 97.3606 230.892 92.5494 212.801 94.08C209.107 94.3737 205.438 94.9229 201.82 95.7236C200.014 96.139 198.207 96.7351 196.401 97.2408C194.553 97.7089 192.742 98.3126 190.983 99.047C187.373 100.454 183.861 102.101 180.471 103.978C177.075 105.984 173.822 108.223 170.736 110.679C164.346 115.679 158.807 121.681 154.336 128.451C149.775 135.441 146.293 143.076 144.004 151.101C141.889 159.182 141.012 167.537 141.403 175.882C141.853 183.999 143.616 191.99 146.623 199.542C148.058 203.22 149.735 206.798 151.644 210.253C153.62 213.581 155.816 216.773 158.219 219.808C160.554 222.793 163.101 225.606 165.841 228.225C168.554 230.745 171.439 233.075 174.474 235.196C185.882 243.227 199.224 248.072 213.126 249.23C224.167 250.115 235.269 248.66 245.708 244.959C256.147 241.258 265.688 235.396 273.705 227.755C279.222 222.565 283.918 216.566 287.631 209.964C289.052 207.594 290.301 205.125 291.37 202.577C291.858 201.493 292.345 200.5 292.724 199.561L293.61 196.942L294.856 193.329C294.988 192.923 295.145 192.525 295.325 192.137C295.268 192.557 295.165 192.968 295.018 193.365C294.747 194.25 294.386 195.442 293.935 196.978L293.104 199.633C292.761 200.59 292.273 201.583 291.821 202.703C290.806 205.294 289.598 207.806 288.209 210.217C284.546 216.908 279.88 223 274.374 228.279C266.299 236.124 256.646 242.16 246.058 245.988C235.47 249.815 224.189 251.345 212.964 250.477C198.809 249.338 185.212 244.451 173.571 236.316C170.467 234.164 167.515 231.798 164.739 229.236C161.935 226.568 159.327 223.701 156.936 220.657C154.482 217.565 152.237 214.313 150.217 210.921C148.259 207.429 146.54 203.809 145.07 200.084C142.041 192.411 140.273 184.299 139.832 176.062C139.416 167.55 140.293 159.025 142.433 150.776C144.763 142.576 148.319 134.775 152.981 127.639C157.565 120.76 163.224 114.662 169.742 109.577C172.902 107.085 176.227 104.81 179.694 102.768C183.153 100.859 186.738 99.1876 190.423 97.7646C192.18 96.9965 193.991 96.3566 195.841 95.8501C197.648 95.3443 199.454 94.7302 201.386 94.3148C219.035 90.4508 237.468 92.5865 253.765 100.384C263.873 105.31 272.817 112.33 280.004 120.978C287.191 129.625 292.457 139.703 295.452 150.541C297.539 157.903 298.477 165.542 298.233 173.19C298.221 175.973 297.997 178.75 297.565 181.499C297.402 182.691 297.294 183.793 297.113 184.804C296.933 185.816 296.68 186.61 296.481 187.495L295.614 191.108C295.545 191.476 295.449 191.838 295.325 192.191Z" fill="#FEB724"/>
<path d="M294.511 192.824C294.06 192.715 294.638 189.211 295.017 183.142C295.551 174.516 294.752 165.86 292.651 157.477C291.194 151.756 289.111 146.214 286.438 140.95C283.374 134.957 279.549 129.384 275.059 124.37C272.645 121.66 270.031 119.136 267.238 116.82C264.349 114.387 261.275 112.183 258.045 110.227C254.71 108.202 251.226 106.433 247.623 104.935C243.897 103.418 240.064 102.18 236.154 101.232C232.236 100.34 228.258 99.7368 224.251 99.4263C220.356 99.1281 216.443 99.1281 212.547 99.4263C205.156 100.031 197.892 101.704 190.982 104.393C184.705 106.848 178.769 110.095 173.317 114.056C168.562 117.559 164.201 121.568 160.313 126.013C154.659 132.552 150.047 139.923 146.64 147.868C144.184 153.539 143.172 156.899 142.703 156.736C142.233 156.574 142.703 153.124 144.509 147.055C147.228 138.428 151.514 130.377 157.152 123.304C165.551 112.688 176.534 104.405 189.049 99.2457C196.422 96.1869 204.218 94.2684 212.168 93.5562C216.371 93.1633 220.6 93.115 224.811 93.4117C229.142 93.7405 233.441 94.3987 237.671 95.3805C241.883 96.4147 246.013 97.761 250.025 99.4082C253.905 101.043 257.649 102.981 261.224 105.206C264.682 107.355 267.967 109.771 271.049 112.431C274.009 114.972 276.769 117.737 279.303 120.703C284.008 126.167 287.951 132.243 291.025 138.765C293.621 144.431 295.537 150.385 296.733 156.501C298.569 165.356 298.759 174.472 297.293 183.395C296.227 189.663 294.927 192.914 294.511 192.824Z" fill="#FEB724"/>
<path d="M164.141 352.146C169.006 364.984 169.952 378.976 166.861 392.352C163.77 405.727 156.779 417.885 146.775 427.286C136.77 436.687 124.202 442.909 110.66 445.163C97.1177 447.418 83.2113 445.603 70.7008 439.95C58.1903 434.297 47.6383 425.06 40.3804 413.407C33.1226 401.754 29.4852 388.209 29.9288 374.488C30.3724 360.767 34.877 347.486 42.8723 336.326C50.8677 325.166 61.9943 316.629 74.8438 311.796C92.0363 305.309 111.101 305.915 127.847 313.482C144.592 321.049 157.647 334.956 164.141 352.146Z" fill="#FEE475"/>
<path d="M150.74 357.962C154.454 367.743 155.183 378.405 152.834 388.6C150.485 398.796 145.164 408.064 137.544 415.234C129.925 422.403 120.349 427.15 110.03 428.875C99.7107 430.599 89.112 429.223 79.5755 424.92C70.039 420.617 61.9935 413.582 56.4575 404.704C50.9216 395.827 48.1442 385.506 48.4769 375.05C48.8097 364.593 52.2376 354.47 58.3267 345.962C64.4158 337.454 72.8923 330.945 82.6831 327.257C95.78 322.309 110.306 322.764 123.068 328.521C135.829 334.279 145.783 344.868 150.74 357.962Z" fill="#FEE475"/>
<path d="M148.628 357.962C148.471 357.723 148.338 357.468 148.23 357.203C147.977 356.643 147.616 355.885 147.183 354.91L146.424 353.23C146.117 352.634 145.72 352.002 145.322 351.297C144.45 349.662 143.46 348.093 142.36 346.601C139.465 342.432 135.951 338.729 131.939 335.62C126.102 331.017 119.357 327.7 112.148 325.889C104.938 324.077 97.4272 323.811 90.1076 325.108C80.9059 326.771 72.3108 330.847 65.2005 336.92C63.2746 338.531 61.464 340.276 59.782 342.14C58.9512 343.079 58.2106 344.109 57.4159 345.102C56.6 346.086 55.8689 347.137 55.2304 348.245C53.8143 350.42 52.5471 352.689 51.4375 355.036C50.3883 357.463 49.4955 359.955 48.7643 362.495C47.2649 367.728 46.6124 373.167 46.8317 378.607C47.2184 389.881 51.2917 400.718 58.4274 409.456C61.8454 413.695 65.9257 417.355 70.5107 420.293C72.736 421.731 75.0528 423.022 77.4464 424.158C79.7951 425.187 82.2085 426.062 84.6711 426.777C89.5036 428.215 94.5317 428.885 99.572 428.764C108.922 428.65 118.073 426.05 126.087 421.232C133.071 417.034 138.972 411.256 143.317 404.363C146.882 398.675 149.334 392.362 150.542 385.759C151.501 380.772 151.696 375.669 151.12 370.623C150.965 368.798 150.676 366.987 150.253 365.205C150.091 364.41 149.982 363.688 149.802 363.019C149.621 362.351 149.44 361.791 149.278 361.213L148.555 358.811C148.469 358.539 148.402 358.262 148.357 357.98C148.486 358.234 148.589 358.5 148.664 358.775L149.495 361.159C149.657 361.683 149.856 362.279 150.073 362.965C150.289 363.651 150.398 364.356 150.578 365.151C151.04 366.929 151.366 368.741 151.554 370.569C152.202 375.654 152.061 380.808 151.138 385.849C149.826 393.275 146.949 400.336 142.698 406.564C138.448 412.792 132.92 418.045 126.484 421.973C120.247 425.834 113.268 428.342 106 429.335C98.7316 430.327 91.3359 429.782 84.2918 427.734C81.7421 427.019 79.2439 426.132 76.8142 425.079C74.3709 423.929 72.0057 422.62 69.734 421.16C65.0524 418.165 60.8865 414.432 57.3978 410.106C50.0872 401.191 45.9224 390.112 45.5493 378.588C45.3173 373.037 45.9945 367.485 47.5542 362.152C48.284 359.551 49.1954 357.004 50.2815 354.53C51.5305 352.142 52.9427 349.843 54.508 347.649C55.169 346.52 55.9179 345.445 56.7476 344.434C57.5604 343.44 58.319 342.393 59.1679 341.417C60.8516 339.532 62.662 337.764 64.5864 336.125C71.8465 329.945 80.6263 325.817 90.0173 324.168C97.4447 322.862 105.065 323.153 112.371 325.022C119.677 326.891 126.502 330.294 132.39 335.006C136.414 338.182 139.918 341.966 142.776 346.222C143.862 347.743 144.834 349.343 145.684 351.008C146.063 351.731 146.442 352.363 146.731 352.977L147.454 354.693C147.851 355.686 148.176 356.499 148.411 357.023C148.506 357.33 148.579 357.644 148.628 357.962Z" fill="#FEB724"/>
<path d="M148.5 358.63C148.211 358.739 147.181 356.662 144.888 353.212C141.786 348.313 137.955 343.915 133.527 340.171C130.482 337.637 127.169 335.445 123.647 333.633C119.644 331.581 115.395 330.052 111.004 329.081C106.147 328.033 101.165 327.693 96.2112 328.07C93.6008 328.271 91.0101 328.676 88.4627 329.28C85.8433 329.924 83.2723 330.751 80.7684 331.754C78.2763 332.783 75.8618 333.99 73.5437 335.367C71.307 336.74 69.1813 338.286 67.186 339.991C65.24 341.651 63.4282 343.463 61.7674 345.409C60.1621 347.242 58.6951 349.192 57.3784 351.243C54.9187 355.037 52.9636 359.136 51.5626 363.435C50.3942 367.183 49.6313 371.047 49.2868 374.958C48.7773 380.732 49.1611 386.55 50.4247 392.207C51.3097 396.235 52.0683 398.456 51.7612 398.565C51.4542 398.673 50.3163 396.65 48.9255 392.622C47.0099 386.865 46.171 380.803 46.4511 374.741C46.6529 370.541 47.3377 366.377 48.4921 362.333C49.8438 357.693 51.8185 353.257 54.3621 349.148C57.173 344.587 60.6629 340.482 64.7115 336.974C66.8472 335.126 69.1239 333.447 71.5208 331.953C74.0065 330.436 76.6026 329.108 79.2873 327.98C81.9809 326.873 84.7594 325.985 87.5957 325.324C93.0151 324.069 98.598 323.673 104.14 324.15C106.744 324.375 109.328 324.792 111.871 325.397C116.569 326.529 121.094 328.284 125.327 330.617C129.004 332.659 132.423 335.132 135.513 337.986C139.987 342.092 143.661 346.991 146.351 352.435C148.193 356.228 148.717 358.486 148.5 358.63Z" fill="#FEB724"/>
<path d="M787.97 490.845C791.165 499.363 792.651 508.428 792.343 517.521C792.034 526.614 789.937 535.557 786.172 543.839C782.406 552.121 777.046 559.581 770.397 565.791C763.748 572.002 755.941 576.841 747.422 580.034C743.599 581.473 739.659 582.579 735.645 583.339C722.695 585.7 709.341 584.319 697.148 579.36C684.954 574.4 674.427 566.068 666.801 555.338C659.176 544.609 654.766 531.928 654.091 518.782C653.416 505.636 656.502 492.57 662.989 481.116C669.475 469.662 679.093 460.294 690.714 454.112C702.335 447.929 715.478 445.188 728.601 446.209C741.725 447.23 754.285 451.971 764.81 459.877C775.335 467.783 783.388 478.525 788.024 490.845H787.97Z" fill="#FEE475"/>
<path d="M774.551 496.661C778.261 506.438 778.988 517.097 776.638 527.288C774.288 537.478 768.967 546.743 761.349 553.908C753.732 561.073 744.159 565.817 733.844 567.54C723.529 569.262 712.934 567.885 703.402 563.583C693.87 559.281 685.828 552.248 680.295 543.373C674.762 534.499 671.986 524.182 672.319 513.73C672.652 503.277 676.079 493.158 682.165 484.654C688.252 476.149 696.725 469.642 706.512 465.956C719.607 461.008 734.13 461.464 746.889 467.222C759.647 472.979 769.597 483.569 774.551 496.661Z" fill="#FEE475"/>
<path d="M772.527 496.661C772.369 496.416 772.236 496.156 772.13 495.884C771.859 495.324 771.516 494.584 771.082 493.608L770.306 491.929C769.999 491.333 769.601 490.701 769.222 489.996C768.347 488.363 767.358 486.793 766.26 485.3C763.35 481.137 759.838 477.43 755.838 474.3C746.286 466.751 734.407 462.754 722.233 462.995C710.059 463.235 698.347 467.698 689.1 475.619C687.21 477.232 685.43 478.97 683.772 480.821C682.941 481.778 682.201 482.808 681.406 483.783C680.598 484.773 679.868 485.824 679.221 486.926C677.808 489.11 676.541 491.384 675.428 493.735C674.376 496.161 673.483 498.653 672.754 501.194C671.247 506.426 670.595 511.866 670.822 517.305C671.208 528.58 675.282 539.417 682.417 548.155C685.83 552.399 689.912 556.059 694.501 558.992C696.712 560.433 699.017 561.724 701.4 562.857C703.786 563.887 706.235 564.762 708.733 565.476C711.182 566.171 713.674 566.702 716.193 567.066C718.661 567.369 721.148 567.501 723.634 567.463C735.807 567.318 747.552 562.95 756.861 555.106C766.171 547.262 772.468 536.429 774.677 524.458C775.65 519.473 775.851 514.368 775.273 509.322C775.118 507.497 774.828 505.686 774.406 503.904C774.243 503.109 774.117 502.368 773.954 501.718L773.412 499.912C773.123 498.901 772.889 498.106 772.708 497.51C772.621 497.238 772.555 496.96 772.509 496.679C772.632 496.935 772.735 497.201 772.816 497.474L773.629 499.858L774.225 501.664C774.406 502.314 774.55 503.055 774.731 503.849C775.199 505.658 775.525 507.499 775.706 509.358C776.354 514.443 776.214 519.597 775.291 524.639C773.984 532.066 771.109 539.129 766.858 545.358C762.607 551.587 757.077 556.838 750.637 560.762C744.401 564.626 737.423 567.138 730.154 568.133C722.886 569.129 715.49 568.587 708.444 566.542C705.897 565.819 703.4 564.932 700.967 563.887C698.52 562.737 696.154 561.422 693.887 559.949C689.202 556.966 685.035 553.239 681.551 548.913C677.981 544.439 675.107 539.452 673.025 534.121C671.07 528.748 669.949 523.108 669.702 517.396C669.473 511.846 670.144 506.295 671.689 500.96C672.433 498.361 673.35 495.814 674.434 493.338C675.576 490.947 676.867 488.63 678.299 486.402C678.977 485.285 679.732 484.217 680.557 483.205C681.37 482.193 682.128 481.164 682.977 480.189C684.661 478.303 686.471 476.535 688.396 474.897C695.653 468.725 704.426 464.604 713.809 462.958C721.243 461.664 728.867 461.97 736.173 463.854C743.48 465.738 750.301 469.158 756.182 473.885C760.205 477.061 763.709 480.846 766.567 485.101C767.653 486.623 768.625 488.223 769.475 489.888C769.854 490.61 770.234 491.242 770.523 491.856L771.245 493.572C771.642 494.566 771.968 495.378 772.202 495.902C772.33 496.147 772.438 496.4 772.527 496.661Z" fill="#FEB724"/>
<path d="M772.328 497.311C772.039 497.438 771.01 495.342 768.716 491.893C765.627 486.989 761.801 482.591 757.373 478.852C754.333 476.312 751.019 474.119 747.493 472.314C743.491 470.262 739.242 468.733 734.85 467.762C729.994 466.714 725.011 466.373 720.057 466.751C717.447 466.952 714.856 467.357 712.309 467.961C709.687 468.597 707.116 469.424 704.615 470.435C702.125 471.468 699.71 472.675 697.39 474.048C695.162 475.425 693.043 476.971 691.05 478.671C689.104 480.299 687.291 482.08 685.632 484C684.026 485.833 682.559 487.783 681.243 489.834C678.783 493.628 676.828 497.726 675.427 502.025C674.209 505.791 673.409 509.68 673.043 513.621C672.533 519.401 672.916 525.225 674.181 530.888C675.066 534.916 675.824 537.137 675.517 537.246C675.21 537.354 674.054 535.331 672.663 531.303C670.757 525.544 669.925 519.483 670.207 513.422C670.609 504.349 673.333 495.53 678.118 487.811C680.936 483.261 684.425 479.162 688.467 475.655C690.596 473.793 692.873 472.107 695.277 470.616C697.76 469.095 700.357 467.767 703.043 466.642C705.738 465.554 708.509 464.667 711.334 463.987C714.092 463.363 716.894 462.946 719.714 462.741C725.055 462.393 730.418 462.844 735.627 464.078C744.46 466.199 752.601 470.552 759.27 476.721C763.735 480.834 767.408 485.731 770.107 491.17C772.021 494.927 772.545 497.239 772.328 497.311Z" fill="#FEB724"/>
<path d="M0 791.864L236.356 369.996L622.118 337.882L691 152L629 129L791 0L834 206L768 183L668.194 422.321L304.774 454.435L111.116 792.315L0 791.864Z" fill="#E0E0E0" fill-opacity="0.5"/>
<g clip-path="url(#clip0_48_4088)">
<path d="M668.632 786.204H213.368C197.768 786.204 185 773.444 185 757.836V468.98C185 453.38 197.768 440.612 213.368 440.612H668.632C684.232 440.612 697 453.38 697 468.98V757.844C697 773.444 684.232 786.204 668.632 786.204Z" fill="white"/>
<path d="M671.4 466.204H210.6V760.604H671.4V466.204Z" fill="#343537"/>
<path d="M504.336 786.196H351.536V840.94H504.336V786.196Z" fill="#CCCBCA"/>
<path d="M530.44 854.188H325.448L351.552 840.948H504.336L530.44 854.188Z" fill="white"/>
<path d="M351.536 786.204H469.848L351.536 805.628V786.204Z" fill="#AAAAAA"/>
<path d="M530.44 854.188H325.448V869.388H530.44V854.188Z" fill="#CCCBCA"/>
<g opacity="0.15">
<path d="M204.889 638.011L195.973 455.729L327.829 441.271L204.889 638.011Z" fill="white"/>
</g>
<rect x="404.146" y="510" width="2.22906" height="9.13806" fill="#27AE60"/>
<rect x="399.688" y="519.138" width="11.1453" height="143.016" fill="#27AE60"/>
<rect x="404.146" y="662.155" width="2.22906" height="6.48527" fill="#27AE60"/>
<rect x="427.876" y="518.081" width="2.22906" height="9.13806" fill="#27AE60"/>
<rect x="423.417" y="527.219" width="11.1453" height="143.016" fill="#27AE60"/>
<rect x="427.876" y="670.235" width="2.22906" height="6.48527" fill="#27AE60"/>
<rect x="238.032" y="659.161" width="2.22906" height="8.59116" fill="#27AE60"/>
<rect x="233.573" y="667.752" width="11.1453" height="9.94843" fill="#27AE60"/>
<rect x="238.032" y="677.7" width="2.22906" height="8.29501" fill="#27AE60"/>
<rect x="261.764" y="653.287" width="2.22906" height="8.59116" fill="#27AE60"/>
<rect x="257.305" y="661.878" width="11.1453" height="9.94843" fill="#27AE60"/>
<rect x="261.764" y="671.826" width="2.22906" height="8.29501" fill="#27AE60"/>
<rect x="285.493" y="648.785" width="2.22906" height="8.59116" fill="#27AE60"/>
<rect x="281.034" y="657.377" width="11.1453" height="9.94843" fill="#27AE60"/>
<rect x="285.493" y="667.325" width="2.22906" height="8.29501" fill="#27AE60"/>
<rect x="309.223" y="645.136" width="2.22906" height="8.59116" fill="#27AE60"/>
<rect x="304.764" y="653.727" width="11.1453" height="9.94843" fill="#27AE60"/>
<rect x="309.223" y="663.675" width="2.22906" height="8.29501" fill="#27AE60"/>
<rect x="332.954" y="616.549" width="2.22906" height="8.59116" fill="#27AE60"/>
<rect x="328.495" y="625.14" width="11.1453" height="35.2045" fill="#27AE60"/>
<rect x="332.954" y="660.345" width="2.22906" height="8.29501" fill="#27AE60"/>
<rect x="356.685" y="590.609" width="2.22906" height="8.59116" fill="#27AE60"/>
<rect x="352.226" y="599.2" width="11.1453" height="35.2045" fill="#27AE60"/>
<rect x="356.685" y="634.404" width="2.22906" height="8.29501" fill="#27AE60"/>
<rect x="522.799" y="667.531" width="2.22906" height="8.59116" fill="#27AE60"/>
<rect x="518.34" y="676.122" width="11.1453" height="35.2045" fill="#27AE60"/>
<rect x="522.799" y="711.326" width="2.22906" height="8.29501" fill="#27AE60"/>
<rect x="546.527" y="627.655" width="2.22906" height="8.59116" fill="#27AE60"/>
<rect x="542.068" y="636.246" width="11.1453" height="35.2045" fill="#27AE60"/>
<rect x="546.527" y="671.45" width="2.22906" height="8.29501" fill="#27AE60"/>
<rect x="570.259" y="605.57" width="2.22906" height="8.59116" fill="#27AE60"/>
<rect x="565.8" y="614.162" width="11.1453" height="35.2045" fill="#27AE60"/>
<rect x="570.259" y="649.366" width="2.22906" height="8.29501" fill="#27AE60"/>
<rect x="593.989" y="585.971" width="2.22906" height="8.59116" fill="#27AE60"/>
<rect x="589.53" y="594.563" width="11.1453" height="35.2045" fill="#27AE60"/>
<rect x="593.989" y="629.767" width="2.22906" height="8.29501" fill="#27AE60"/>
<rect x="640.739" y="585.971" width="2.22906" height="8.59116" fill="#27AE60"/>
<rect x="636.28" y="594.563" width="11.1453" height="35.2045" fill="#27AE60"/>
<rect x="640.739" y="629.767" width="2.22906" height="8.29501" fill="#27AE60"/>
<rect x="380.415" y="600.163" width="2.22906" height="7.43847" fill="#EB5757"/>
<rect x="375.956" y="607.602" width="11.1453" height="43.1164" fill="#EB5757"/>
<rect x="380.415" y="650.718" width="2.22906" height="10.2176" fill="#EB5757"/>
<rect x="451.605" y="520.434" width="2.22906" height="7.43847" fill="#EB5757"/>
<rect x="447.146" y="527.872" width="11.1453" height="110.992" fill="#EB5757"/>
<rect x="451.605" y="638.864" width="2.22906" height="10.2176" fill="#EB5757"/>
<rect x="475.337" y="581.14" width="2.22906" height="7.43847" fill="#EB5757"/>
<rect x="470.878" y="588.578" width="11.1453" height="110.992" fill="#EB5757"/>
<rect x="475.337" y="699.571" width="2.22906" height="10.2176" fill="#EB5757"/>
<rect x="499.068" y="613.352" width="2.22906" height="22.8155" fill="#EB5757"/>
<rect x="494.609" y="636.167" width="11.1453" height="77.9089" fill="#EB5757"/>
<rect x="499.068" y="714.076" width="2.22906" height="27.9239" fill="#EB5757"/>
<rect x="617.721" y="510" width="2.22906" height="22.8155" fill="#EB5757"/>
<rect x="613.262" y="532.815" width="11.1453" height="77.9089" fill="#EB5757"/>
<rect x="617.721" y="610.724" width="2.22906" height="27.9239" fill="#EB5757"/>
</g>
<defs>
<clipPath id="clip0_48_4088">
<rect width="512" height="512" fill="white" transform="translate(185 399)"/>
</clipPath>
</defs>
</svg>
