<svg width="24" height="21" viewBox="0 0 24 21" fill="none" xmlns="http://www.w3.org/2000/svg">
<path d="M1.82357 19.1407C1.5818 19.1407 1.35004 19.0446 1.17903 18.8737C1.00813 18.7027 0.912109 18.471 0.912109 18.2292V1.82296C0.912109 1.58119 1.00813 1.34943 1.17903 1.17842C1.35004 1.00752 1.5818 0.911499 1.82357 0.911499H7.29232V19.1407H1.82357Z" fill="#1C1C1C" fill-opacity="0.1"/>
<path d="M6.38086 0.911458V19.1406C6.38086 19.644 6.78893 20.0521 7.29232 20.0521C7.7957 20.0521 8.20378 19.644 8.20378 19.1406V0.911458C8.20378 0.408074 7.7957 0 7.29232 0C6.78893 0 6.38086 0.408074 6.38086 0.911458Z" fill="#1C1C1C"/>
<path fill-rule="evenodd" clip-rule="evenodd" d="M0 1.82292C0 1.82292 0 1.06784 0.53392 0.53392C0.53392 0.53392 1.06784 0 1.82292 0H21.875C21.875 0 22.6301 0 23.164 0.53392C23.164 0.53392 23.6979 1.06784 23.6979 1.82292V18.2292C23.6979 18.2292 23.6979 18.9842 23.164 19.5182C23.164 19.5182 22.6301 20.0521 21.875 20.0521H1.82292C1.82292 20.0521 1.06784 20.0521 0.53392 19.5182C0.53392 19.5182 0 18.9842 0 18.2292V1.82292ZM1.82292 1.82292V18.2292H21.875V1.82292H1.82292Z" fill="#1C1C1C"/>
<path d="M0.912435 5.46879H3.64681C4.15019 5.46879 4.55827 5.06072 4.55827 4.55733C4.55827 4.05395 4.15019 3.64587 3.64681 3.64587H0.912435C0.40905 3.64587 0.000976562 4.05395 0.000976562 4.55733C0.000976562 5.06072 0.40905 5.46879 0.912435 5.46879Z" fill="#1C1C1C"/>
<path d="M0.912435 9.11454H3.64681C4.15019 9.11454 4.55827 8.70647 4.55827 8.20308C4.55827 7.6997 4.15019 7.29163 3.64681 7.29163H0.912435C0.40905 7.29163 0.000976562 7.6997 0.000976562 8.20308C0.000976562 8.70647 0.40905 9.11454 0.912435 9.11454Z" fill="#1C1C1C"/>
<path d="M0.912435 12.7604H3.64681C4.15019 12.7604 4.55827 12.3523 4.55827 11.849C4.55827 11.3456 4.15019 10.9375 3.64681 10.9375H0.912435C0.40905 10.9375 0.000976562 11.3456 0.000976562 11.849C0.000976562 12.3523 0.40905 12.7604 0.912435 12.7604Z" fill="#1C1C1C"/>
</svg>
