<svg xmlns="http://www.w3.org/2000/svg" version="1.1" x="0" y="0" viewBox="0 0 178 51" width="178" height="51">
  <path fill="#ff0508" d="m153.2 31.3 1.5.2c-1.1 4.2-7.9 2.7-7.3-1.4s5.7-5.6 7.3-1.9l-1.5.6a2.2 2.2 0 0 0-4.2 1.3c-.4 2.4 3.4 3.8 4.2 1.2ZM98.5 42.7c1-.1 3.4.4 3.3-1.1s-2.3-1-3.3-1.1ZM97 44v-7.6h6v1.3h-4.5v1.5h2.2c3.6-.3 3.5 5.1 0 4.8Zm7.3 0v-7.6h1.6v6.3h.2l2.1-6.3h2.9V44h-1.6v-6.3h-.2l-2.1 6.3Zm9.7-3.7c1.2 0 3.4.3 3.3-1.3s-2.2-1.2-3.3-1.3Zm-1.5 3.7v-7.6h3.4c4.2.1 4.3 6-1.9 5.1V44Zm6.4 0 2.5-4-2.5-3.6h1.9l1.9 3h.6v-3h1.5v3h.7l1.8-3h1.9l-2.5 3.6 2.6 4h-1.8l-2-3.3h-.7V44h-1.5v-3.3h-.6l-2 3.3Zm13.3-3.2h2.4l-1-3.1h-.4Zm-2.6 3.2 2.7-7.6h2.3l2.7 7.6h-1.6l-.7-1.9h-3.2l-.7 1.9ZM96.9 33.9v-7.6h3l1.4 6.3h.2l1.3-6.3h2.9v7.6h-1.5v-6.3h-.2l-1.3 6.3h-2.6l-1.4-6.3h-.2v6.3Zm13.9-1.2c3.3.1 3.2-5.4-.1-5.3s-3.2 5.4.1 5.3Zm0 1.3c-5.4.2-5.4-8.1 0-7.9s5.3 8.1 0 7.9Zm10.6-2.7 1.6.2c-1.1 4.2-7.9 2.7-7.3-1.4s5.7-5.6 7.2-1.9l-1.5.6c-1-2.5-4.5-1.2-4.1 1.3s3.3 3.8 4.1 1.2Zm2.7 2.6v-7.6h1.6v2.9h.8l2.5-2.9h1.9l-3 3.5 3.2 4.1h-1.9l-2.7-3.4h-.8v3.4Zm11-1.2c3.3.1 3.2-5.4-.1-5.3s-3.2 5.4.1 5.3Zm0 1.3c-5.3.2-5.4-8.1 0-7.9s5.3 8.1 0 7.9Zm6.6-4.6c.9-.1 3.2.4 3.2-.9s-2.3-.8-3.2-.9Zm0 3.2c.9-.2 3.4.5 3.4-1s-2.5-.9-3.4-1Zm-1.5 1.3v-7.6h3.7c2.5-.4 3.4 2.9 1.2 3.7 2.5.7 1.4 4.2-1.1 3.9Zm15.7 0v-7.6h1.6v2.9h.8l2.5-2.9h1.9l-3.1 3.5 3.2 4.1h-1.9l-2.6-3.4h-.8v3.4Zm9.8-3.3h2.4l-1-3h-.3Zm-2.6 3.3 2.7-7.6h2.3l2.8 7.6h-1.7l-.6-2h-3.3l-.7 2Zm13.4-4.2v-2.1c-1 .1-3.3-.5-3.2 1s2.2 1 3.2 1.1Zm-4.9 4.2c.3-1.1.1-3.1 1.5-3.5-2.5-1.1-1.2-4.4 1.4-4.1h3.5v7.6h-1.5V31c-3.4-.2-2.8.1-3.3 2.9ZM0 51V19.1h34.5V0h55v51Z" />
  <path fill="#fff" d="M18.7 40.9H18l-3.5-14.6H7.9V44h3.4V29.4h.7L15.5 44h5.8l3.5-14.6h.7V44h3.4V26.3h-6.6ZM53.4 44h12.1v-3.1h-8.6v-4.4h7.4v-3h-7.4v-4.1h8.6v-3.1H53.4Zm-12.2-2.6c-3.9 0-5.7-2.7-5.7-6.3s1.8-6.2 5.7-6.2 5.7 2.7 5.7 6.2-1.8 6.3-5.7 6.3Zm0-15.6c-5.9 0-9.3 3.8-9.3 9.3s3.4 9.4 9.3 9.4 9.3-3.9 9.3-9.4-3.4-9.3-9.3-9.3ZM67.9 44h3.7l4.1-7 4.5 7h3.7L78 34.7l5.6-8.4h-3.8l-3.9 6.3-3.9-6.3h-3.8l5.4 8.3Z" />
</svg>
