<svg width="20" height="18" viewBox="0 0 20 18" fill="none" xmlns="http://www.w3.org/2000/svg">
<path d="M2.57632 17.2273H1.10414C0.811301 17.2273 0.53046 17.1365 0.323394 16.975C0.116328 16.8135 0 16.5944 0 16.366V11.198C0 10.9696 0.116328 10.7505 0.323394 10.5889C0.53046 10.4274 0.811301 10.3367 1.10414 10.3367H2.57632C2.86915 10.3367 3.14999 10.4274 3.35706 10.5889C3.56412 10.7505 3.68045 10.9696 3.68045 11.198V16.366C3.68045 16.5944 3.56412 16.8135 3.35706 16.975C3.14999 17.1365 2.86915 17.2273 2.57632 17.2273Z" fill="#343537"/>
<path d="M12.882 17.2263H11.4098C11.117 17.2263 10.8361 17.1356 10.6291 16.974C10.422 16.8125 10.3057 16.5934 10.3057 16.365V7.75171C10.3057 7.52327 10.422 7.30419 10.6291 7.14266C10.8361 6.98113 11.117 6.89038 11.4098 6.89038H12.882C13.1748 6.89038 13.4557 6.98113 13.6627 7.14266C13.8698 7.30419 13.9861 7.52327 13.9861 7.75171V16.365C13.9861 16.5934 13.8698 16.8125 13.6627 16.974C13.4557 17.1356 13.1748 17.2263 12.882 17.2263Z" fill="#343537"/>
<path d="M18.0343 17.2267H16.5621C16.2693 17.2267 15.9885 17.1359 15.7814 16.9744C15.5743 16.8129 15.458 16.5938 15.458 16.3654V3.73254C15.458 3.50411 15.5743 3.28502 15.7814 3.12349C15.9885 2.96196 16.2693 2.87122 16.5621 2.87122H18.0343C18.3272 2.87122 18.608 2.96196 18.8151 3.12349C19.0221 3.28502 19.1385 3.50411 19.1385 3.73254V16.3654C19.1385 16.5938 19.0221 16.8129 18.8151 16.9744C18.608 17.1359 18.3272 17.2267 18.0343 17.2267Z" fill="#343537"/>
<path d="M7.72866 17.2266H6.25648C5.96364 17.2266 5.6828 17.1358 5.47574 16.9743C5.26867 16.8128 5.15234 16.5937 5.15234 16.3652V0.861328C5.15234 0.63289 5.26867 0.413807 5.47574 0.252277C5.6828 0.0907468 5.96364 0 6.25648 0H7.72866C8.0215 0 8.30234 0.0907468 8.5094 0.252277C8.71647 0.413807 8.8328 0.63289 8.8328 0.861328V16.3652C8.8328 16.5937 8.71647 16.8128 8.5094 16.9743C8.30234 17.1358 8.0215 17.2266 7.72866 17.2266Z" fill="#343537"/>
</svg>
