<svg width="21" height="17" viewBox="0 0 21 17" fill="none" xmlns="http://www.w3.org/2000/svg">
<path d="M14.081 1.95502C13.1857 1.201 11.9353 0.785767 10.5551 0.785767C9.16761 0.785767 7.91304 1.19849 7.02191 1.94784C6.12112 2.70545 5.68222 3.7351 5.78527 4.84693C5.98954 7.04044 8.12926 8.82483 10.5551 8.82483C12.981 8.82483 15.1171 7.0408 15.3246 4.84765C15.429 3.74586 14.9873 2.71837 14.081 1.95502Z" fill="#343537"/>
<path d="M18.6518 16.863H2.4578C2.24583 16.8652 2.03592 16.8305 1.84333 16.7614C1.65074 16.6923 1.48031 16.5905 1.34446 16.4636C1.04542 16.1847 0.924887 15.804 1.01414 15.4189C1.40243 13.7386 2.61422 12.3271 4.51885 11.3362C6.21094 10.4566 8.35434 9.97241 10.5548 9.97241C12.7552 9.97241 14.8986 10.4569 16.5907 11.3362C18.4954 12.3267 19.7072 13.7382 20.0954 15.4185C20.1847 15.8036 20.0642 16.1844 19.7651 16.4632C19.6293 16.5902 19.4589 16.692 19.2663 16.7612C19.0737 16.8303 18.8638 16.8651 18.6518 16.863V16.863Z" fill="#343537"/>
</svg>
